<svg width="103" height="102" viewBox="0 0 103 102" fill="none" xmlns="http://www.w3.org/2000/svg">
<path fill-rule="evenodd" clip-rule="evenodd" d="M26.4344 12.75H77.4344V89.25H58.3094V82.875C58.3094 79.3541 55.4552 76.5 51.9344 76.5C48.4137 76.5 45.5594 79.3541 45.5594 82.875V89.25H26.4344V12.75ZM51.9344 95.625H77.4344C80.9554 95.625 83.8094 92.7709 83.8094 89.25V12.75C83.8094 9.22921 80.9554 6.375 77.4344 6.375H26.4344C22.9137 6.375 20.0594 9.22921 20.0594 12.75V89.25C20.0594 92.7709 22.9137 95.625 26.4344 95.625H51.9344ZM45.5594 25.5H32.8094V38.25H45.5594V25.5ZM58.3094 25.5H71.0594V38.25H58.3094V25.5ZM71.0594 51H58.3094V63.75H71.0594V51ZM32.8094 51H45.5594V63.75H32.8094V51Z" fill="#4C0196"/>
</svg>
