<svg width="103" height="102" viewBox="0 0 103 102" fill="none" xmlns="http://www.w3.org/2000/svg">
<path d="M40.3556 65.535L45.0094 60.8813L35.1281 51L44.8819 41.2462L40.2281 36.5925L25.7569 51.0638L40.2919 65.5988L40.3556 65.535ZM61.8394 65.535L76.3744 51L61.8394 36.465L57.1856 41.1187L67.0669 51L57.1856 60.8813L61.8394 65.535ZM19.2544 89.25C17.5331 89.25 16.0669 88.6125 14.7919 87.3375C13.5169 86.0625 12.8794 84.5963 12.8794 82.875V19.125C12.8794 17.4037 13.5169 15.9375 14.7919 14.6625C16.0669 13.3875 17.5331 12.75 19.2544 12.75H83.0044C84.7256 12.75 86.1919 13.3875 87.4669 14.6625C88.7419 15.9375 89.3794 17.4037 89.3794 19.125V82.875C89.3794 84.5963 88.7419 86.0625 87.4669 87.3375C86.1919 88.6125 84.7256 89.25 83.0044 89.25H19.1906H19.2544ZM19.2544 82.875H83.0044V19.125H19.1906V82.875H19.2544Z" fill="#4C0196"/>
</svg>
