<svg width="103" height="102" viewBox="0 0 103 102" fill="none" xmlns="http://www.w3.org/2000/svg">
<path d="M35.1372 9.2644C40.7515 7.12587 46.7403 6.14302 52.7437 6.37476C63.974 6.83733 74.62 11.5061 82.5679 19.4539C90.5158 27.4018 95.1845 38.0485 95.647 49.2791C95.8787 55.2824 94.8959 61.2712 92.7573 66.8855C90.6187 72.4998 87.3677 77.6241 83.2007 81.9519C79.0336 86.2797 74.0358 89.7216 68.5063 92.071C62.9769 94.4205 57.0299 95.6292 51.022 95.6248C48.4859 95.6247 46.0536 94.6173 44.2603 92.824C42.467 91.0307 41.4595 88.5983 41.4595 86.0623V74.0779C41.4624 72.6058 41.1258 71.1523 40.4751 69.8318C39.8244 68.5113 38.8767 67.3592 37.7075 66.4646C36.5384 65.5701 35.1785 64.9574 33.7339 64.6746C32.2893 64.3918 30.7985 64.4461 29.3784 64.8337L25.8091 65.822C23.5296 66.4446 21.1371 66.5325 18.8179 66.0798C16.4988 65.6272 14.315 64.6465 12.437 63.2126C10.559 61.7787 9.03731 59.9302 7.98975 57.8123C6.94218 55.6942 6.39681 53.3627 6.39697 50.9998C6.39254 44.9919 7.60124 39.0448 9.95068 33.5154C12.3001 27.986 15.7421 22.9881 20.0698 18.821C24.3977 14.6539 29.5228 11.403 35.1372 9.2644ZM52.52 12.7498C47.3724 12.548 42.2373 13.3888 37.4224 15.2205C32.6073 17.0522 28.2116 19.8378 24.4995 23.4099C20.7876 26.982 17.835 31.2666 15.8198 36.0076C13.8046 40.7486 12.7681 45.8482 12.772 50.9998C12.769 52.3802 13.0843 53.7431 13.6929 54.9822C14.3014 56.2211 15.1866 57.3038 16.2808 58.1453C17.375 58.9867 18.6487 59.5647 20.0024 59.8347C21.3562 60.1047 22.7541 60.0592 24.0874 59.7019L27.6577 58.7136C29.0391 58.3354 30.4647 58.1429 31.897 58.1404C36.1239 58.1404 40.1776 59.8195 43.1665 62.8083C46.1553 65.7972 47.8345 69.8511 47.8345 74.0779V86.0623C47.8345 86.9076 48.1704 87.7184 48.7681 88.3162C49.3658 88.9139 50.1766 89.2497 51.022 89.2498C56.1749 89.2596 61.2764 88.2228 66.0161 86.2009C70.7558 84.179 75.0352 81.2143 78.5942 77.488V77.5203C82.1862 73.822 84.9857 69.4295 86.8218 64.6121C88.6578 59.7945 89.4914 54.6526 89.272 49.5017C88.7727 39.9165 84.7405 30.8561 77.9536 24.0691C71.1665 17.282 62.1054 13.249 52.52 12.7498ZM60.5845 66.9373C64.1052 66.9373 66.9593 69.7916 66.9595 73.3123C66.9595 76.8331 64.1053 79.6873 60.5845 79.6873C57.0637 79.6872 54.2095 76.8331 54.2095 73.3123C54.2096 69.7916 57.0638 66.9373 60.5845 66.9373ZM73.3345 50.9998C76.8552 50.9998 79.7093 53.8541 79.7095 57.3748C79.7095 60.8956 76.8553 63.7498 73.3345 63.7498C69.8137 63.7497 66.9595 60.8956 66.9595 57.3748C66.9596 53.8541 69.8138 50.9998 73.3345 50.9998ZM31.897 31.8748C35.4177 31.8748 38.2718 34.7291 38.272 38.2498C38.272 41.7706 35.4178 44.6248 31.897 44.6248C28.3762 44.6247 25.522 41.7706 25.522 38.2498C25.5221 34.7291 28.3763 31.8748 31.897 31.8748ZM70.147 31.8748C73.6677 31.8748 76.5218 34.7291 76.522 38.2498C76.522 41.7706 73.6678 44.6248 70.147 44.6248C66.6262 44.6247 63.772 41.7706 63.772 38.2498C63.7721 34.7291 66.6263 31.8748 70.147 31.8748ZM51.022 22.3123C54.5427 22.3123 57.3968 25.1666 57.397 28.6873C57.397 32.2081 54.5428 35.0623 51.022 35.0623C47.5012 35.0622 44.647 32.2081 44.647 28.6873C44.6471 25.1666 47.5013 22.3123 51.022 22.3123Z" fill="#4C0196"/>
</svg>
