<svg width="103" height="102" viewBox="0 0 103 102" fill="none" xmlns="http://www.w3.org/2000/svg">
<path fill-rule="evenodd" clip-rule="evenodd" d="M64.272 31.875C64.272 38.9166 58.5636 44.625 51.522 44.625C44.4803 44.625 38.772 38.9166 38.772 31.875C38.772 24.8334 44.4803 19.125 51.522 19.125C58.5636 19.125 64.272 24.8334 64.272 31.875ZM57.897 31.875C57.897 35.3958 55.0428 38.25 51.522 38.25C48.0012 38.25 45.147 35.3958 45.147 31.875C45.147 28.3542 48.0012 25.5 51.522 25.5C55.0428 25.5 57.897 28.3542 57.897 31.875Z" fill="#4C0196"/>
<path d="M13.272 66.9375L13.272 76.5H26.022C26.022 78.8223 26.6429 80.9996 27.7277 82.875H13.272C9.75116 82.875 6.89697 80.0208 6.89697 76.5V66.9375C6.89697 58.1355 14.0324 51 22.8345 51C26.2048 51 29.3309 52.0462 31.9055 53.8315C30.5474 55.4648 29.3894 57.2704 28.4692 59.2106C26.8889 58.0563 24.9413 57.375 22.8345 57.375C17.5533 57.375 13.272 61.6563 13.272 66.9375Z" fill="#4C0196"/>
<path d="M89.7719 82.875H75.3162C76.401 80.9996 77.0219 78.8223 77.0219 76.5H89.7719V66.9375C89.7719 61.6563 85.4906 57.375 80.2094 57.375C78.1026 57.375 76.155 58.0563 74.5747 59.2106C73.6545 57.2704 72.4965 55.4648 71.1384 53.8315C73.713 52.0462 76.8391 51 80.2094 51C89.0115 51 96.1469 58.1355 96.1469 66.9375V76.5C96.1469 80.0208 93.2927 82.875 89.7719 82.875Z" fill="#4C0196"/>
<path fill-rule="evenodd" clip-rule="evenodd" d="M51.522 51C40.9595 51 32.397 59.5626 32.397 70.125V76.5C32.397 80.0208 35.2512 82.875 38.772 82.875H64.272C67.7928 82.875 70.647 80.0208 70.647 76.5V70.125C70.647 59.5626 62.0844 51 51.522 51ZM64.272 76.5V70.125C64.272 63.0834 58.5636 57.375 51.522 57.375C44.4803 57.375 38.772 63.0834 38.772 70.125V76.5H64.272Z" fill="#4C0196"/>
<path fill-rule="evenodd" clip-rule="evenodd" d="M80.2095 44.625C85.4907 44.625 89.772 40.3437 89.772 35.0625C89.772 29.7813 85.4907 25.5 80.2095 25.5C74.9282 25.5 70.647 29.7813 70.647 35.0625C70.647 40.3437 74.9282 44.625 80.2095 44.625ZM80.2095 38.25C81.9699 38.25 83.397 36.8229 83.397 35.0625C83.397 33.3021 81.9699 31.875 80.2095 31.875C78.4491 31.875 77.022 33.3021 77.022 35.0625C77.022 36.8229 78.4491 38.25 80.2095 38.25Z" fill="#4C0196"/>
<path fill-rule="evenodd" clip-rule="evenodd" d="M32.397 35.0625C32.397 40.3437 28.1157 44.625 22.8345 44.625C17.5533 44.625 13.272 40.3437 13.272 35.0625C13.272 29.7813 17.5533 25.5 22.8345 25.5C28.1157 25.5 32.397 29.7813 32.397 35.0625ZM26.022 35.0625C26.022 36.8229 24.5949 38.25 22.8345 38.25C21.0741 38.25 19.647 36.8229 19.647 35.0625C19.647 33.3021 21.0741 31.875 22.8345 31.875C24.5949 31.875 26.022 33.3021 26.022 35.0625Z" fill="#4C0196"/>
</svg>
