<?xml version="1.0" encoding="UTF-8" standalone="no"?>
<svg
   width="530"
   height="530"
   version="1.0"
   viewBox="0 0 397.5 397.49976"
   id="svg2"
   sodipodi:docname="avatar.svg"
   xml:space="preserve"
   inkscape:version="1.4.2 (ebf0e940, 2025-05-08)"
   inkscape:export-filename="icons/icon.ico"
   inkscape:export-xdpi="5.7962265"
   inkscape:export-ydpi="5.7962265"
   xmlns:inkscape="http://www.inkscape.org/namespaces/inkscape"
   xmlns:sodipodi="http://sodipodi.sourceforge.net/DTD/sodipodi-0.dtd"
   xmlns="http://www.w3.org/2000/svg"
   xmlns:svg="http://www.w3.org/2000/svg"><defs
     id="defs2" /><sodipodi:namedview
     id="namedview2"
     pagecolor="#ffffff"
     bordercolor="#000000"
     borderopacity="0.25"
     inkscape:showpageshadow="2"
     inkscape:pageopacity="0.0"
     inkscape:pagecheckerboard="0"
     inkscape:deskcolor="#d1d1d1"
     inkscape:zoom="1.0406005"
     inkscape:cx="315.68312"
     inkscape:cy="284.93164"
     inkscape:window-width="1568"
     inkscape:window-height="860"
     inkscape:window-x="104"
     inkscape:window-y="88"
     inkscape:window-maximized="0"
     inkscape:current-layer="svg2" /><ellipse
     style="fill:#ffffff;fill-opacity:1;stroke-width:0.75"
     id="path30"
     cx="237.483"
     cy="139.10233"
     rx="53.694942"
     ry="67.749321" /><path
     style="fill:#93b0cc;fill-opacity:1;stroke-width:0.75"
     d="m 141.92303,397.69219 4.23077,-26.15384 39.61538,8.84615 -5.00001,17.6923 z"
     id="path27" /><path
     style="fill:#93b0cc;fill-opacity:1;stroke-width:0.75"
     d="m 188.07686,381.15373 4.23078,16.92307 37.69229,-0.38462 -3.07692,-27.6923 z"
     id="path28"
     sodipodi:nodetypes="ccccc" /><path
     d="m 230,39.2 c -25.1,3.6 -44.2,19.2 -50.5,41.2 -1.9,6.3 -2.4,24.6 -1.1,32.3 l 0.8,4.3 -5.5,2.4 c -4.6,2 -5.7,3 -6.7,6.1 -4,12.2 3.8,30.8 14.5,34.6 1.9,0.7 3.5,1.5 3.5,1.9 0,1.8 4,20 4.9,22.3 0.8,2.1 0.8,2.7 -0.2,2.7 -0.7,0 -3,0.9 -5.1,2 -3.2,1.6 -4.6,1.8 -8,1 -9.4,-2.2 -16.4,-0.5 -22.2,5.4 -5.9,5.9 -6.8,9.9 -6,28 0.6,13.9 0.4,15.3 -1.9,23 -1.3,4.4 -2.9,10.3 -3.5,13.1 -0.5,2.7 -1.2,6 -1.5,7.1 -0.4,1.7 -1.9,2.5 -6.9,3.8 -3.6,0.9 -7.9,1.6 -9.6,1.6 -1.6,0 -3.9,0.9 -4.9,1.9 -1.1,1.1 -3.2,2.1 -4.8,2.3 -1.7,0.2 -3.2,1.1 -3.8,2.5 -0.8,2 -3.2,3.3 -6.2,3.3 -1.8,0 -7.2,-11.3 -8,-16.6 -0.7,-5.3 -2.4,-7.4 -5.3,-6.7 -3.9,1 -5.2,4.5 -4.5,11.8 0.4,3.6 0.4,6.5 -0.1,6.5 -0.4,0 -2.2,-0.5 -3.9,-1.1 -3.9,-1.5 -11.6,-0.4 -14.5,1.9 -1.9,1.5 -2.2,3.1 -2.7,12.1 -0.5,10.1 -0.4,10.9 3,18 2,4.1 7.2,6.1 16.2,6.1 4.5,0 10.7,-0.7 13.9,-1.5 5.6,-1.5 5.8,-1.5 7.5,0.7 1.8,2.1 1.9,2.1 7.3,0.6 4.6,-1.3 5.7,-1.3 7.3,-0.2 2.4,1.8 5.5,1.8 8.2,-0.1 1.3,-0.9 3.2,-1.3 5.1,-0.9 l 3,0.6 -0.5,8.7 c -0.3,4.7 -0.8,12.4 -1.1,17.1 -0.4,4.7 -0.5,13.2 -0.2,19 l 0.5,10.5 3.8,2.4 3.8,2.5 -0.6,8.1 c -0.3,4.4 -0.8,9.9 -1.1,12.2 -0.5,3.8 -0.3,4.3 1.4,4.3 2.2,0 3.2,-2.5 3.2,-8.5 0,-2.2 0.3,-6.3 0.6,-9.2 l 0.7,-5.1 4.1,1.5 c 2.2,0.8 6.4,1.3 9.1,1.1 2.8,-0.1 5.5,0.1 6.1,0.5 0.7,0.4 4.2,1.1 7.9,1.6 3.7,0.6 6.9,1.1 7.1,1.3 0.2,0.2 -0.3,3.5 -1.1,7.3 -1.9,8.9 -1.9,9.5 0.3,9.5 1.4,0 2.1,-1.3 3,-5.1 0.7,-2.8 1.2,-6 1.2,-7.1 0,-3.8 1.2,-1 2.4,5.4 0.9,5.4 1.4,6.3 3.4,6.6 1.9,0.3 2.2,0 1.7,-2 -3.7,-16.3 -3.9,-15.5 4.3,-16.3 3.7,-0.4 11.3,-1.7 17,-3.1 5.7,-1.3 10.5,-2.4 10.7,-2.4 0.2,0 0.6,2.7 0.9,6 0.3,3.3 0.9,8.7 1.2,12 0.5,5 0.9,6 2.5,6 2.2,0 2.2,0.2 0.9,-13.5 -1,-11.3 -0.5,-12.8 4.5,-14.9 4.9,-2.1 6.9,-5.6 6,-10.7 -0.8,-4.8 2,-14.9 4.2,-14.9 0.8,0 2.5,0.7 3.9,1.6 1.8,1.3 3,1.4 4.7,0.7 1.6,-0.7 2.8,-0.6 4.4,0.5 2,1.3 3,1.2 8.5,-0.2 3.5,-0.9 15,-2.2 25.6,-3 18.4,-1.3 19.5,-1.5 24,-4.3 6.3,-3.9 9.6,-9.9 9.7,-17.4 0,-5.4 -1,-7.6 -16.3,-38 -8.9,-17.8 -18,-34.8 -20.2,-37.7 -2.2,-2.9 -4,-5.9 -4,-6.8 0,-2.3 -2.5,-6.6 -5.5,-9.4 -1.5,-1.4 -4.1,-4.5 -5.8,-7 -1.6,-2.5 -4.3,-5.9 -5.9,-7.6 l -2.9,-3.1 9.4,-9.5 c 11.3,-11.4 14,-16.4 16.8,-31.5 2,-10.4 2.3,-11.2 4.8,-12.1 12.8,-4.5 20.6,-29.6 12,-38.8 -1.2,-1.3 -3.2,-2.4 -4.3,-2.4 -1.2,0 -2.9,-0.6 -3.8,-1.4 -1.5,-1.1 -1.7,-2.7 -1.2,-13.2 1.1,-21.3 -3.5,-34.6 -16,-46.9 C 270,43.1 249.2,36.4 230,39.2 Z m 43.8,16.9 c 2.3,1.8 8.2,8 8.2,8.7 0,1.3 3.5,4.2 5,4.2 2.5,0 6.7,9.9 8.1,19 1.2,7.8 0.5,25.8 -1,27.3 -1.3,1.3 -15.8,-3.1 -20.4,-6.1 -6.6,-4.4 -22.1,-3.8 -25.1,1 -1.7,2.7 -0.4,2.8 6.4,0.7 6.6,-2.1 14,-2.1 17.7,0 1.3,0.7 0.1,0.9 -4.4,1 -7.5,0 -13.4,1.5 -18.9,4.7 -5.9,3.5 -15.3,3.4 -22.3,-0.2 -3,-1.6 -8.3,-3.1 -13.3,-3.8 -5.3,-0.8 -7.6,-1.5 -6.5,-1.9 3.1,-1.2 11.1,-0.8 16.3,0.8 6.1,1.8 6.4,1.8 6.4,-0.1 0,-1.9 -5.1,-4.1 -11.6,-4.9 -5.4,-0.8 -9.9,0.6 -16.4,4.9 -3.9,2.6 -17.5,6.4 -18.7,5.2 -1.3,-1.2 -1.6,-27 -0.4,-32.4 1.9,-8.9 7.1,-18 7.1,-12.5 0,1.5 0.2,1.5 1.9,-0.1 1.1,-1 1.7,-2.4 1.4,-3.1 -0.2,-0.8 0.5,-2 1.6,-2.7 1.2,-0.7 2.1,-2 2.1,-2.8 0,-1.6 7.7,-7.3 12.3,-9 4.1,-1.5 7.4,-1.2 14.5,1 8,2.5 19.3,2.6 25.9,0.3 9.7,-3.4 19,-3.1 24.1,0.8 z m 7.3,62.9 c 8.6,4 5.1,23.2 -5.1,28.5 -7.8,4.1 -19.8,0.3 -23.8,-7.5 -2.5,-5 -1.8,-5.9 2.7,-3.6 6.3,3.3 16.7,1 22,-4.8 l 2.5,-2.6 -3,-3.1 c -7.1,-7.5 -16.5,-8 -23.6,-1.1 -1.9,1.8 -2.8,2.1 -2.8,1.1 0,-2.9 3.2,-5.9 7.8,-7.4 5.5,-1.7 19.3,-1.5 23.3,0.5 z m -61.5,0.1 c 2.6,0.7 5.3,2.2 6.4,3.7 3,3.7 2.4,4.7 -1,1.8 -7,-5.9 -15.6,-5.3 -22.4,1.6 l -4,3.9 3,2.6 c 7.1,6.1 13.9,7.5 20.9,4.4 2.7,-1.2 5,-1.9 5.2,-1.7 1,1 -2.7,7.4 -6,10.3 -4,3.5 -8.8,4.8 -14.8,4 -5.4,-0.7 -8.3,-2.8 -11.6,-8.4 -2.3,-4 -2.8,-6 -2.8,-11.5 0,-3.7 0.5,-7.2 1.1,-7.8 3.6,-3.6 17.1,-5.1 26,-2.9 z m 54.8,7.9 c 2,1.9 2,2 0,4.1 -5.2,5.8 -15.9,6.4 -24.3,1.2 -0.7,-0.4 4.1,-6.3 5.9,-7.3 1.7,-0.9 1.7,-0.7 0.7,1.9 -1.5,4.1 1.1,8.1 5.5,8.1 6.4,0 8.9,-6.1 4.6,-10.8 l -2.3,-2.4 4,1.6 c 2.2,0.9 4.9,2.6 5.9,3.6 z m 32.7,-3.3 c 1.9,2.2 1.8,13.8 0,18.3 -2.4,5.7 -5.9,10.4 -9.2,12.4 l -3.1,1.8 0.7,-2.2 c 0.4,-1.3 1.7,-3.2 2.9,-4.4 1.2,-1.2 1.5,-1.5 0.6,-0.9 -2.6,2 -2.9,1.6 -1.9,-2.5 0.5,-2 0.9,-5.5 0.9,-7.7 0.1,-7.6 4,-8.9 4.2,-1.4 0.1,3.1 0.2,3.2 1.1,1.1 0.8,-1.7 0.6,-3.1 -0.6,-5.7 -1.6,-3.4 -1.6,-3.4 1,-5.5 2.4,-1.8 2.4,-2 0.5,-2 -1.1,0 -3,1.2 -4.1,2.6 -2.1,2.7 -2.1,2.7 -2.1,0.4 0,-5 6.2,-7.9 9.1,-4.3 z m -128.6,1.8 c 1.4,1.3 2.5,3.4 2.5,4.6 0,1.9 -0.2,1.9 -2.9,-1 -1.6,-1.7 -3.7,-3.1 -4.8,-3.1 -1.5,0 -1.3,0.4 1.1,2.3 2.5,2 2.7,2.6 1.7,4.4 -0.6,1.2 -1.1,3.7 -1,5.5 l 0.1,3.3 0.7,-3.1 c 1.2,-4.9 2.1,-5.8 3.6,-3.7 1.2,1.8 2.7,16.3 1.7,16.3 -0.3,0 -1.5,-0.8 -2.6,-1.8 -2.1,-1.7 -2.1,-1.7 -0.2,0.5 1.1,1.3 2.5,2.3 3.1,2.3 0.7,0 1.5,1.1 1.7,2.5 0.7,3.2 -0.3,3.2 -4.1,-0.1 -5.7,-4.7 -8.4,-10.7 -8.9,-19.6 -0.4,-6.6 -0.2,-8.2 1.3,-9.8 2.4,-2.6 4.1,-2.5 7,0.5 z M 211,125 c -4,4 -1.1,11 4.5,11 5,0 7.9,-5.5 5.4,-10.1 -1,-2 -1,-2 1.5,-0.4 2.1,1.4 5.6,5.6 5.6,6.8 0,0.8 -9.8,4.7 -11.7,4.7 -3.5,0 -9.3,-2.1 -11.9,-4.3 -2.5,-2.2 -2.5,-2.3 -0.7,-4.4 1.7,-2.1 6.9,-5.3 8.6,-5.3 0.4,0 -0.2,0.9 -1.3,2 z m 52,1 c 0,1.1 -0.6,2 -1.4,2 -1.8,0 -2.9,-1.6 -2.1,-3 1.1,-1.8 3.5,-1.1 3.5,1 z m -47,0.4 c 0,0.8 -0.5,1.8 -1.1,2.2 -1.4,0.8 -3.3,-1.1 -2.5,-2.5 1,-1.6 3.6,-1.3 3.6,0.3 z m 26.3,-0.5 c 2,0.8 2.5,1.8 3,6.4 1.7,16.9 17.4,26.3 32.3,19.3 7.7,-3.6 11.9,-10.3 13.9,-21.8 1,-6.3 2,-5 2.3,3 0.3,8.9 -3.8,31.3 -6.8,37.2 -2.1,4.1 -4,5.9 -4,3.8 0,-0.7 -0.9,0 -1.9,1.5 l -1.8,2.9 -0.7,-2.5 c -0.8,-3.4 -4.4,-7.7 -7.5,-8.8 -4.2,-1.6 -12.4,-1.2 -19.6,1 -8,2.5 -9.2,2.6 -7.5,0.6 0.7,-0.8 2.6,-1.5 4.2,-1.5 3.4,0 4.4,-1.9 2.9,-5.7 -1,-2.8 -1,-2.8 -0.8,0.7 0.2,3.3 0,3.5 -3.1,3.5 -1.8,0 -3.6,0.5 -4,1.1 -1.4,2.1 -4.1,2.3 -6.6,0.3 -1.7,-1.4 -3.3,-1.8 -5,-1.3 -2.4,0.6 -2.6,0.3 -2.7,-2.7 l -0.1,-3.4 -1,2.8 c -1.2,3.4 0.5,6.1 3.6,5.3 1.2,-0.3 3,0.2 4,1 1.1,0.8 3.1,1.5 4.5,1.5 1.6,0.1 2,0.3 0.9,0.6 -0.9,0.2 -6.4,-0.7 -12.1,-2.1 -12.2,-3 -15.2,-3.2 -20.6,-1 -4.4,1.7 -6.5,4.3 -7.9,9.5 l -0.9,3.4 -1.7,-3.4 c -1.2,-2.2 -2.1,-3 -2.5,-2.2 -1.6,2.5 -4.2,-4.1 -7.1,-17.2 -2.6,-12.1 -4.4,-32.1 -2.8,-31.1 0.4,0.2 1.2,3 1.8,6.2 1.5,7.2 3.3,10.7 7.9,15.5 8.2,8.6 23.6,8.4 31.8,-0.5 3.2,-3.4 6.3,-10.8 6.3,-15.3 0,-4.4 0.7,-5.9 3,-6.8 2.3,-0.8 3.6,-0.8 6.3,0.2 z m 26.1,47.4 c 4.2,3.1 1.1,16.9 -6.3,28.4 -5.9,9.2 -11.8,12.5 -15.5,8.7 -2.1,-2 -2,-3.1 0.2,-3.7 0.9,-0.3 -1.9,-0.5 -6.3,-0.5 -4.4,0 -7.2,0.2 -6.3,0.5 1.6,0.4 1.6,0.6 0.2,2.9 -4.8,7.3 -17.1,-3.2 -23.3,-19.9 -2.3,-6.4 -2.8,-13.6 -0.9,-15.5 1.6,-1.6 6.9,-1.5 14.3,0.3 8.4,2.1 21.5,1.9 30,-0.4 8.5,-2.3 11.6,-2.5 13.9,-0.8 z m -73.7,19.5 c 0.9,1.6 0.8,1.8 -1.1,1.8 -1.6,-0.1 -2.7,1.2 -4.6,4.9 -2.3,4.6 -2.5,5.9 -2.2,16.7 0.2,8.1 -0.1,11.9 -0.9,12.4 -0.8,0.5 -0.9,0.3 -0.4,-0.5 0.4,-0.7 -0.1,-2 -1.3,-3.2 -2.7,-2.5 -4.2,-7.9 -4.2,-15.4 0,-7.9 1.6,-13.2 4.7,-16.1 3.2,-2.9 8.3,-3.2 10,-0.6 z m -20.5,0.8 4.4,0.6 -1.3,5.1 c -1.4,5.6 -0.7,12.9 2.3,22.5 2,6.3 2,6.4 -7.7,19 -3.8,4.8 -8.9,11.8 -11.5,15.6 -5.3,7.7 -10.8,20.6 -9.4,22 1.3,1.3 1,1.6 6.4,-9.4 2.5,-5.2 7.1,-12.7 10.1,-16.5 3,-3.9 7.9,-10.3 10.7,-14.3 4.2,-5.8 5.4,-6.9 6,-5.5 2.2,5.8 -0.3,15.9 -8.3,32.8 -8.3,17.6 -11.9,36.1 -11.9,61.3 0,6.4 -0.3,20.2 -0.7,30.6 l -0.6,18.8 -4.5,-0.6 c -5.1,-0.7 -13.9,-4.4 -16.4,-6.9 -1.3,-1.4 -1.7,-3.7 -1.6,-12.5 v -10.7 l 1.2,5.7 c 0.7,3.2 1.6,6.1 2.1,6.5 0.4,0.5 0.5,-0.1 0.1,-1.2 -0.4,-1 -0.9,-3.8 -1.3,-6 -0.4,-3.6 -0.1,-4.6 2.2,-7.1 3.4,-3.7 6.1,-8.8 7.6,-14.7 0.7,-2.8 1.7,-4.7 2.8,-4.9 1.2,-0.3 1.1,-0.5 -0.6,-1 -2,-0.5 -2.3,-0.1 -3.3,4.6 -1.3,6.1 -6.2,15.1 -9.1,16.7 -2.1,1.1 -2.1,1 -1.5,-7.2 0.3,-4.6 1.1,-18.3 1.6,-30.4 1.7,-34.2 5.5,-54.9 13.6,-73.6 9,-20.9 9.9,-27.9 1.5,-12 -4.5,8.6 -5.1,7.9 -5.1,-5.9 0,-11.1 2.4,-16.4 9,-19.8 4.7,-2.4 6.2,-2.5 13.2,-1.6 z m 23.6,5.8 c 0.2,0.2 -0.2,1.4 -0.8,2.6 -1.6,3 -0.5,8.3 2.5,11.9 9.9,11.7 37.2,18.1 50,11.7 l 4.8,-2.5 2.9,2.2 c 2,1.5 2.5,2.3 1.6,2.8 -2.3,1.2 -20,4.7 -30.3,5.9 -10.3,1.2 -17,3 -21.4,5.8 -10.5,6.4 -14.2,9.1 -18.8,13.6 -2.9,2.7 -5.3,4.8 -5.3,4.6 0,-0.3 1.2,-4.1 2.6,-8.5 2.3,-7.1 2.7,-10.3 3.3,-28 0.4,-11 1.1,-20.8 1.6,-21.8 0.6,-1.5 1.5,-1.8 3.8,-1.3 1.7,0.3 3.2,0.8 3.5,1 z m 18.5,14.3 c 9.2,7.2 11.1,8.4 17,10.4 6,2 4,2.3 -5.3,0.9 -7.7,-1.3 -19.1,-6.4 -24.3,-10.9 -4,-3.6 -5.8,-9.1 -3.7,-11.6 1.1,-1.3 1.8,-1 5.4,2.2 2.3,2.1 7.2,6.1 10.9,9 z m 53.9,9.3 c 1.2,1.9 4.3,5.8 7,8.7 2.6,2.8 4.8,5.5 4.8,6 0,0.4 -5.1,0.8 -11.3,0.9 -10.7,0 -11.5,0.2 -19.4,3.7 -9.7,4.4 -12.1,4.5 -29.8,1.5 l -13,-2.3 6.5,-0.6 c 5.6,-0.5 5.9,-0.6 2,-0.8 -7.9,-0.3 -2.2,-2 13.9,-4.2 14.6,-1.9 29.7,-5.5 35,-8.4 l 2.6,-1.4 -2.5,-0.1 c -1.4,0 -4.1,-1.4 -5.9,-3 l -3.5,-3 2.9,-3 2.9,-3 2.9,2.7 c 1.5,1.6 3.8,4.4 4.9,6.3 z m -88.7,7.9 c -0.8,1.6 -4.9,7.3 -9,12.6 -4.2,5.3 -8.7,11.4 -10.2,13.6 -1.4,2.1 -2.8,3.9 -3,3.9 -0.9,0 3.3,-6.2 10.4,-15.1 4.1,-5.2 8.6,-11.3 10,-13.7 2.8,-4.8 4.1,-5.7 1.8,-1.3 z m 77.6,13.3 c -6.2,6 -5.5,6.9 1.9,2.7 11.4,-6.6 19,-6.3 25.3,1.1 4,4.7 35.3,66.3 36.3,71.4 0.8,4.8 -1.8,11.7 -5.7,15 -4.2,3.6 -8.1,4.4 -27.8,5.6 -9.6,0.7 -19.9,1.8 -22.9,2.6 -5.5,1.5 -5.5,1.5 -8.4,-1.3 -2.1,-2 -2.8,-2.3 -2.8,-1.1 0,3 -2.9,2.8 -5.6,-0.5 -1.5,-1.8 -2.5,-2.4 -2.1,-1.5 0.5,1.3 0.1,1.8 -1.2,1.8 -1,0 -3.2,0.3 -4.8,0.6 -2.8,0.5 -3.1,0.3 -4.7,-3.5 -1.7,-4.3 -2.4,-15.1 -1.2,-18.8 0.5,-1.7 1.6,-2.2 5.4,-2.5 2.6,-0.2 4.9,0 5,0.4 0.2,0.5 1.4,-0.6 2.6,-2.4 2.5,-3.8 4.7,-4.5 6.9,-2.4 1.3,1.4 1.6,1.4 2.8,0 3.3,-4 10.6,-5.1 36.7,-5.6 6.1,-0.2 11.2,-0.5 11.2,-0.7 0,-0.2 -0.8,-1 -1.7,-1.7 -1.3,-0.9 -5.6,-1.4 -14.8,-1.4 h -13 l -7.3,-14 c -5.6,-10.7 -7.8,-14 -9.3,-14 -1,0 -1.9,0.2 -1.9,0.5 0,0.3 1.9,4.3 4.2,8.9 l 4.2,8.5 -7.4,6.8 c -4,3.7 -8.1,7.1 -9,7.5 -1,0.4 -2.4,1.6 -3.2,2.7 -1,1.4 -3.1,2.2 -6.9,2.7 -2.9,0.4 -5.9,1.1 -6.5,1.6 -0.8,0.6 -2.5,-0.7 -5.3,-3.9 -4,-4.7 -6.1,-10.6 -6.1,-17.2 0,-6.1 -6.6,-6.7 -9.6,-0.9 -1.3,2.4 -1.5,4.6 -1,9.4 l 0.6,6.1 -8,0.5 c -9.6,0.6 -12,2.2 -12,7.8 0,2.1 0.7,4.3 1.5,5 0.8,0.7 1.5,2.5 1.5,4.1 0,1.5 0.4,3 0.9,3.3 0.5,0.3 1.2,2.1 1.5,4 0.4,1.9 1.8,5 3.1,7 2.1,3.1 2.2,3.5 0.6,2.6 -3.4,-1.8 -9.7,-9.8 -11.1,-14 -1.6,-4.9 -2.3,-5.3 -7,-4 l -3.5,1 3.7,-0.5 c 3.7,-0.4 3.8,-0.3 6.4,5.6 3.3,7.2 9.4,13.1 16.2,15.5 4.4,1.6 5.2,2.2 5.5,4.9 0.4,2.8 0.4,2.7 0.5,-0.6 0.2,-3.6 0.3,-3.7 5,-4.4 2.6,-0.4 7.4,-1.6 10.7,-2.7 5.6,-1.9 6,-1.9 7.2,-0.2 0.7,1 1.3,2.1 1.3,2.5 0,0.4 0.9,0.9 2,1.1 2.1,0.3 2.1,0.4 -0.3,5 -1.3,2.6 -2,4.5 -1.5,4.2 0.5,-0.3 0.8,1.8 0.6,4.8 l -0.3,5.3 -6.5,3.2 c -14.5,7.2 -39.1,11.7 -53.6,9.7 l -6.9,-0.9 0.1,-31.5 c 0,-32.7 0.9,-44.2 4.5,-58.5 4.2,-16.6 15.4,-33.8 25.2,-38.3 2.3,-1.1 6.8,-2.3 9.9,-2.7 l 5.7,-0.6 -5.3,7.8 c -3.1,4.7 -6.7,12 -9,18.3 -2.2,5.8 -5.6,14.1 -7.7,18.5 -3.9,8.2 -4.1,9.7 -1.1,7.9 2.6,-1.6 6.1,-8.6 11.4,-22.3 4.8,-12.6 8.6,-19.8 13.7,-26 l 2.8,-3.4 5.8,1.1 c 10.6,2.2 18.1,1.5 27,-2.3 4.4,-1.9 8.4,-3.4 8.9,-3.5 0.6,0 -0.5,1.4 -2.3,3.2 z m -45,6 c -4.7,6.3 -8.2,13.3 -12,23.6 -4,10.6 -8.3,20.3 -8.8,19.8 -0.3,-0.2 0.9,-3.5 2.6,-7.4 1.7,-3.8 4.4,-10.7 6.1,-15.3 3.5,-9.5 6.8,-15.5 11.7,-21.7 4.8,-5.9 5.1,-5.2 0.4,1 z M 94.5,266.1 c 0.4,2.7 2,7.5 3.5,10.6 2.2,4.4 2.6,6.1 1.9,8 -1.3,3.5 -1.1,8.1 0.7,14.8 0.9,3.3 1.7,6.7 1.8,7.5 0.2,2.3 -6.1,3.9 -15.9,3.9 -7.3,0.1 -9.6,-0.3 -12.2,-1.9 -3.2,-1.9 -4.4,-5.2 -2.4,-6.4 1.6,-1 13.6,-3.3 14.9,-2.8 3.4,1.1 -0.8,5.2 -5.4,5.2 -3,0 -3.4,0.3 -3.4,2.5 0,3.1 0,3.1 5.9,0 4.8,-2.4 6.1,-4.3 6.1,-9.3 0,-2.6 0.3,-2.7 3.6,-0.6 3.7,2.5 4,1 0.5,-2.3 -2.4,-2.3 -3.2,-4 -3.9,-9 -0.5,-3.5 -0.5,-6.8 0,-7.5 0.5,-0.7 0.6,-4.3 0.2,-8.1 -0.4,-4.7 -0.2,-7.2 0.6,-8.2 2.1,-2.5 2.8,-1.7 3.5,3.6 z m 62.8,-0.6 c -0.9,1.9 -1.8,3.3 -2.1,3.1 -0.4,-0.5 2.6,-6.6 3.3,-6.6 0.3,0 -0.3,1.6 -1.2,3.5 z m -3.2,7.2 c -1.2,2 -1.4,1.4 -0.5,-1.2 0.4,-0.9 0.9,-1.4 1.1,-1.1 0.3,0.2 0,1.3 -0.6,2.3 z m -14.4,6 c -0.4,3.2 -0.9,11.3 -1.3,18 -0.7,13.1 -0.8,13.2 -5.8,11.3 -1.7,-0.6 -2.6,-0.6 -2.6,0 0,0.6 -1.1,1.5 -2.4,2.1 -2,1 -3,0.8 -5.4,-0.9 -1.6,-1.2 -3.2,-1.8 -3.6,-1.4 -0.4,0.3 -2.6,1.2 -4.9,1.9 -3.9,1.2 -4.3,1.1 -5.9,-1 -2.1,-2.7 -4.6,-10.1 -4.9,-14.2 -0.3,-6.9 -0.1,-7.4 4.2,-8.5 3.2,-0.9 4.4,-0.9 4.9,0.1 0.5,0.7 1,0 1.5,-2 0.8,-3.7 1.9,-4.5 4.3,-3.2 1.5,0.8 2.2,0.4 3.6,-2 1.4,-2.3 2.4,-2.9 5.4,-3 2,0 5.5,-0.6 7.7,-1.4 2.2,-0.7 4.4,-1.3 4.9,-1.4 0.5,-0.1 0.6,2.5 0.3,5.6 z m -54.6,1 c 1.6,1 2.9,2.6 2.9,3.6 0,1.6 -0.5,1.8 -2.7,1.3 C 78.2,283 72,282.8 70.5,284 c -1.2,1 -1.5,1 -1.5,-0.2 0,-1.8 2,-4.4 4,-5.1 3.2,-1.1 9.3,-0.6 12.1,1 z m -1.6,6.7 c 2.3,0.7 4.1,1.9 4.3,2.9 0.3,1.5 -0.6,1.7 -6.7,1.7 -3.8,0 -8.1,0.4 -9.5,1 -2.2,0.8 -2.6,0.7 -2.6,-0.8 0,-1 0.7,-2.8 1.6,-4 1.7,-2.5 6.3,-2.8 12.9,-0.8 z m 136,9.3 c 0.9,7.8 2.6,11.3 7.6,16.8 4.2,4.5 4.2,4.6 4.4,12.8 0.2,4.5 0.6,8.9 0.9,9.8 0.5,1.2 -0.3,2 -3.6,3.2 -6.7,2.4 -12,3.7 -15.8,3.7 -4.1,0 -11.6,-4.1 -8.7,-4.8 2.5,-0.5 2.1,-1.5 -1.3,-3.4 -3.4,-1.9 -4.4,-5.6 -1.1,-3.8 1.3,0.6 2.2,0.7 2.6,0 0.3,-0.5 -1,-1.6 -3,-2.4 -2.6,-1.1 -3.5,-2.1 -3.5,-3.9 0,-2 0.4,-2.3 3,-1.9 4.6,0.7 3.5,-1.2 -1.5,-2.6 -4.1,-1.1 -4.5,-1.5 -4.5,-4.2 0,-3.8 2.7,-5 10.8,-4.9 4.9,0 5.3,0.2 3.2,1 -1.4,0.6 -4,0.8 -5.7,0.5 -4.2,-0.6 -5.3,1 -1.3,1.9 3.8,0.8 8.9,-0.2 11.3,-2.3 1.6,-1.5 1.8,-2.6 1.2,-9.3 -0.7,-7.9 0.3,-11.9 2.9,-11.9 0.9,0 1.6,1.9 2.1,5.7 z M 88,295.5 c 0,1.6 -0.5,2.3 -1.3,2 -0.7,-0.3 -4.8,0.4 -9.1,1.5 -4.4,1.1 -8.1,2 -8.3,2 -0.2,0 -0.3,-1.4 -0.1,-3.2 0.4,-3.9 2.2,-4.6 12.1,-4.7 6.5,-0.1 6.7,0 6.7,2.4 z m 184,6.7 c 0,0.5 -1.7,0.8 -3.8,0.8 -2.1,0 -5.5,0.9 -7.7,2 -3.9,2 -3.9,2 2,-4 l 5.9,-6 1.8,3.2 c 0.9,1.8 1.7,3.6 1.8,4 z"
     id="path1" /><path
     d="m 286,73.5 c 0.7,0.9 1.5,1.3 1.7,1.1 0.7,-0.7 -0.7,-2.6 -1.9,-2.6 -0.6,0 -0.6,0.6 0.2,1.5 z m 1,4 c 0.7,0.9 1.5,1.3 1.7,1.1 0.7,-0.7 -0.7,-2.6 -1.9,-2.6 -0.6,0 -0.6,0.6 0.2,1.5 z m -99,5 c -0.7,0.9 -1.1,1.8 -0.8,2 0.3,0.3 1.1,-0.1 1.8,-1 0.7,-0.9 1.1,-1.8 0.8,-2 -0.3,-0.3 -1.1,0.1 -1.8,1 z m 99.5,2.5 c 0.3,0.5 1.1,1 1.6,1 0.6,0 0.7,-0.5 0.4,-1 -0.3,-0.6 -1.1,-1 -1.6,-1 -0.6,0 -0.7,0.4 -0.4,1 z M 187,87.5 c 0,0.8 0.2,1.5 0.4,1.5 0.2,0 0.6,-0.7 1,-1.5 0.3,-0.8 0.1,-1.5 -0.4,-1.5 -0.6,0 -1,0.7 -1,1.5 z m 58.1,55 c 0,2.2 0.6,5.3 1.4,7 1.3,2.9 1.3,2.8 0.8,-2.5 -0.7,-7 -2.2,-10.1 -2.2,-4.5 z m 18,32 c -6.9,3.8 -35.4,4.4 -45.6,1 -3.5,-1.2 -5,-1.4 -5.9,-0.5 -0.8,0.8 -0.8,1.3 0.2,1.9 0.7,0.4 3.5,4.8 6.3,9.7 2.8,4.9 5.9,9.8 6.8,10.8 4.2,4.9 15.5,7 23.2,4.5 5.2,-1.8 9,-6 13.9,-15.6 2.5,-4.8 5.1,-9.2 5.8,-9.6 1,-0.7 1,-1.2 0.1,-2.3 -1.3,-1.6 -1.6,-1.6 -4.8,0.1 z m -32.3,5.5 c 8.9,0.8 15.2,0.5 28,-1.6 4.3,-0.7 5.5,0.3 2.8,2.5 -2.3,2 -14.7,4.1 -23.8,4.1 -11.9,0 -18.2,-1.5 -20.3,-4.7 -1.7,-2.6 -1.7,-2.6 0.9,-1.9 1.5,0.4 7,1.1 12.4,1.6 z m 15,16 c 7.7,-0.5 8.9,0.1 4.5,2.4 -6.6,3.3 -17.6,2.8 -21.4,-1.1 -1.8,-1.8 -1.7,-1.8 3.9,-1.3 3.1,0.3 9,0.3 13,0 z m -88,128.7 c 0.6,0.2 1.8,0.2 2.5,0 0.6,-0.3 0.1,-0.5 -1.3,-0.5 -1.4,0 -1.9,0.2 -1.2,0.5 z M 144,359.9 c 0,0.5 0.5,1.3 1,1.6 0.6,0.3 1,0.2 1,-0.4 0,-0.5 -0.4,-1.3 -1,-1.6 -0.5,-0.3 -1,-0.2 -1,0.4 z M 267.3,233.7 c 0.9,0.2 2.3,0.2 3,0 0.6,-0.3 -0.1,-0.5 -1.8,-0.5 -1.6,0 -2.2,0.2 -1.2,0.5 z m -5.5,1 c 0.6,0.2 1.8,0.2 2.5,0 0.6,-0.3 0.1,-0.5 -1.3,-0.5 -1.4,0 -1.9,0.2 -1.2,0.5 z m -38.5,7 c 0.9,0.2 2.5,0.2 3.5,0 0.9,-0.3 0.1,-0.5 -1.8,-0.5 -1.9,0 -2.7,0.2 -1.7,0.5 z m -49,83 c 0.9,0.2 2.3,0.2 3,0 0.6,-0.3 -0.1,-0.5 -1.8,-0.5 -1.6,0 -2.2,0.2 -1.2,0.5 z m 35.9,30.8 c 0,1.6 0.2,2.2 0.5,1.2 0.2,-0.9 0.2,-2.3 0,-3 -0.3,-0.6 -0.5,0.1 -0.5,1.8 z m -1.6,6.1 c -0.4,1.4 -0.5,2.8 -0.3,3.1 0.3,0.2 0.8,-0.8 1.1,-2.3 0.4,-1.4 0.5,-2.8 0.3,-3.1 -0.3,-0.2 -0.8,0.8 -1.1,2.3 z m -94.5,-65 c 0,1.1 0.3,1.4 0.6,0.6 0.3,-0.7 0.2,-1.6 -0.1,-1.9 -0.3,-0.4 -0.6,0.2 -0.5,1.3 z"
     id="path2" /><path
     style="fill:#ffd2bb;fill-opacity:1;stroke-width:0.543478"
     d="m 208.88298,340.80469 c -1.09259,-0.42161 -2.6438,-1.19723 -3.44713,-1.72359 l -1.4606,-0.95703 1.27321,-0.99743 1.27322,-0.99741 -1.48017,-1.21684 c -0.81409,-0.66926 -2.22034,-1.78571 -3.125,-2.481 -1.88432,-1.44823 -2.3454,-3.2251 -0.59361,-2.28757 0.57818,0.30943 1.57437,0.5626 2.21377,0.5626 1.90359,0 1.06531,-1.74073 -1.52689,-3.17068 -2.59083,-1.42917 -4.19505,-3.46001 -3.71709,-4.70555 0.22257,-0.58 1.11339,-0.81942 3.04889,-0.81942 4.24206,0 3.51717,-1.34303 -1.61338,-2.98913 -3.80412,-1.22052 -4.34782,-1.67507 -4.34782,-3.63488 0,-2.28175 0.81013,-3.49924 2.78701,-4.18839 1.8438,-0.64275 11.22895,-0.84849 10.61311,-0.23266 -0.20239,0.2024 -2.36249,0.38582 -4.80021,0.40761 -3.02087,0.027 -4.50415,0.25489 -4.65808,0.71563 -0.62632,1.87477 7.89168,2.42618 11.54729,0.74751 4.09362,-1.87979 4.29097,-2.39552 3.89633,-10.18201 -0.36571,-7.21566 0.21801,-11.46217 1.65116,-12.01212 1.34524,-0.51622 1.86115,0.65157 3.14776,7.12514 1.40635,7.07603 2.37936,9.07001 7.29954,14.95891 3.66344,4.38473 4.36597,6.25316 4.41051,11.73005 0.017,2.09238 0.22881,5.5163 0.47066,7.60868 0.27423,2.3726 0.23792,4.06094 -0.0965,4.48613 -0.2949,0.37497 -3.25668,1.55407 -6.58175,2.62022 -7.00789,2.24701 -13.02113,2.85383 -16.18426,1.63323 z"
     id="path7" /><path
     style="fill:#ffd2bb;fill-opacity:1;stroke-width:0.543478"
     d="m 83.149235,308.24998 c 5.067013,-2.71422 6.564725,-4.57625 7.095072,-8.82098 0.20352,-1.62893 0.525285,-2.95407 0.715028,-2.94474 0.189742,0.009 1.323247,0.61949 2.518896,1.35591 4.009342,2.46942 4.685624,1.49411 1.43145,-2.06436 -2.928622,-3.20248 -3.685131,-4.92408 -4.443846,-10.11299 -0.505005,-3.45374 -0.512228,-5.01382 -0.03068,-6.62121 0.421275,-1.4061 0.511687,-4.22488 0.272857,-8.50706 -0.327045,-5.86398 -0.267082,-6.51464 0.710872,-7.7135 1.142685,-1.40079 2.331045,-1.17687 2.331045,0.43923 0,2.04775 2.192077,9.39623 4.142616,13.88726 l 2.039287,4.69535 -0.679612,4.04459 c -0.760628,4.52671 -0.54336,6.86563 1.34529,14.48266 0.71753,2.89384 1.3046,5.7612 1.3046,6.37191 0,2.44377 -6.073122,3.85117 -16.576089,3.8414 l -6.521743,-0.006 z"
     id="path8" /><path
     style="fill:#ffd2bb;fill-opacity:1;stroke-width:0.543478"
     d="m 69.293457,299.4609 c 0,-0.66053 0.262305,-1.95341 0.582901,-2.87308 0.766309,-2.19823 2.582526,-2.79421 9.771158,-3.20634 6.401143,-0.36699 8.31275,0.14404 8.021307,2.14437 -0.14436,0.99084 -0.838837,1.29188 -4.788411,2.07565 -2.540759,0.5042 -6.637228,1.39905 -9.103261,1.98854 l -4.483694,1.07182 z"
     id="path9" /><path
     style="fill:#ffd2bb;fill-opacity:1;stroke-width:0.543478"
     d="m 69.293457,283.90809 c 0,-1.3359 1.802128,-3.80601 3.367236,-4.61535 2.370619,-1.2259 9.331172,-0.83574 11.904714,0.6673 1.877324,1.09641 3.729418,3.66531 3.097896,4.29683 -0.193162,0.19317 -2.614252,-0.0375 -5.380206,-0.51266 -6.216928,-1.06792 -9.55336,-1.09042 -11.495075,-0.0775 -0.824173,0.42993 -1.494565,0.53822 -1.494565,0.24141 z"
     id="path10" /><path
     style="fill:#ffd2bb;fill-opacity:1;stroke-width:0.334822"
     d="m 69.246897,291.92566 c -0.564524,-1.47113 1.445253,-5.00825 3.385721,-5.95872 3.574491,-1.75084 14.478415,0.75412 14.86267,3.41441 0.156458,1.08318 -1.05558,1.41051 -5.234743,1.41372 -4.202301,0.003 -8.950545,0.49805 -11.210369,1.16825 -1.423582,0.42219 -1.628459,0.41792 -1.803279,-0.0376 z"
     id="path11" /><path
     style="fill:#ffd2bb;fill-opacity:1;stroke-width:0.334822"
     d="m 77.272086,310.03869 c -4.449089,-1.31998 -7.492171,-5.17989 -5.502975,-6.98008 1.195039,-1.0815 13.156655,-3.53863 14.988402,-3.07888 1.80138,0.45211 1.013588,2.41276 -1.543139,3.84052 -1.030425,0.57543 -2.147009,0.85201 -3.891696,0.96397 -3.086339,0.19807 -3.555127,0.62642 -3.411779,3.11748 0.09126,1.58597 0.194055,1.80231 0.939524,1.97724 0.594053,0.13941 0.691253,0.25187 0.334823,0.38739 -0.276233,0.10503 -1.13715,0.002 -1.91316,-0.22764 z"
     id="path12" /><path
     style="fill:#ffd2bb;fill-opacity:1;stroke-width:0.334822"
     d="m 226.84922,210.74807 c -1.60723,-0.76034 -2.90773,-1.77863 -5.02418,-3.93389 -3.35671,-3.41826 -5.7296,-6.86802 -8.21848,-11.94817 -2.30909,-4.71316 -3.39547,-8.02144 -4.0416,-12.30756 -0.66188,-4.39064 -0.42173,-6.61267 0.8709,-8.05804 l 0.95063,-1.06296 3.96074,0.0379 c 3.14385,0.0301 4.96204,0.26156 8.81565,1.12234 4.4101,0.98508 5.5186,1.10029 12.09902,1.25746 8.05566,0.19242 11.85976,-0.12297 17.56126,-1.45593 2.00994,-0.4699 4.63379,-1.08132 5.83078,-1.35872 3.17634,-0.73609 6.60702,-0.733 7.97832,0.007 3.94831,2.1312 3.02545,11.19811 -2.25775,22.18194 -3.68718,7.66569 -8.66201,13.93302 -12.46487,15.70333 -2.0509,0.95475 -3.26747,1.04886 -4.60656,0.3564 -1.00611,-0.52029 -3.04646,-2.67316 -3.04646,-3.21448 0,-0.18045 0.45968,-0.60764 1.02151,-0.94931 1.00522,-0.61131 1.00922,-0.6245 0.25111,-0.82755 -1.26597,-0.33909 -11.77735,-0.23291 -12.32172,0.12446 -0.41896,0.27504 -0.37732,0.36394 0.25112,0.53616 0.99976,0.27398 0.95042,0.76029 -0.24452,2.40985 -1.91017,2.6369 -3.91377,3.01222 -7.3649,1.37958 z m 19.23861,-8.18578 c 3.40729,-0.72174 5.72717,-1.98621 8.24834,-4.49577 2.60854,-2.59654 4.22501,-5.01794 8.1025,-12.13725 3.18915,-5.85547 4.86574,-8.58269 5.69778,-9.26831 0.73556,-0.60612 0.70362,-1.24106 -0.12068,-2.39868 -1.04373,-1.46578 -1.70988,-1.49502 -4.59016,-0.20149 -5.59392,2.51224 -11.73136,3.33774 -24.86541,3.34446 -9.81239,0.005 -14.80483,-0.4472 -19.75446,-1.78938 -6.01011,-1.62975 -6.98871,-1.66764 -7.72124,-0.29889 -0.31211,0.58319 -0.23697,0.84746 0.45111,1.58645 1.22302,1.3135 3.14276,4.26784 6.66812,10.26169 6.76741,11.50605 8.21634,13.01802 14.11994,14.73424 4.2535,1.23653 9.796,1.50347 13.76416,0.66293 z"
     id="path13" /><path
     style="fill:#ffd2bb;fill-opacity:1;stroke-width:0.334822"
     d="m 197.90877,177.40526 c -1.37524,-2.67151 -1.91606,-3.1379 -2.91516,-2.51396 -0.8599,0.53701 -0.85746,0.53821 -1.7699,-0.86792 -1.56642,-2.41393 -4.109,-11.28615 -5.69148,-19.86018 -1.70329,-9.22858 -3.15856,-23.46318 -2.68282,-26.24175 l 0.23268,-1.35899 0.47034,1.33928 c 0.25868,0.73662 0.76908,2.69531 1.13421,4.35269 1.36566,6.19885 2.86024,9.79382 5.49542,13.21844 4.83257,6.2803 10.69465,9.19795 18.42055,9.16821 4.42615,-0.017 6.95689,-0.62435 10.71429,-2.57118 6.69093,-3.46678 11.21562,-11.11624 11.87918,-20.08295 0.29618,-4.00247 0.73088,-5.00962 2.54824,-5.90399 2.63175,-1.29516 7.0707,-0.48371 8.23208,1.50484 0.32647,0.559 0.83566,2.66636 1.13153,4.68301 0.98274,6.69854 3.08538,11.40271 6.78801,15.1867 3.52274,3.60015 7.61899,5.6584 12.75595,6.40953 7.65644,1.11951 16.53994,-2.46967 21.01533,-8.49081 2.92394,-3.93383 4.45677,-8.01008 6.31068,-16.78194 0.83614,-3.95628 1.28936,-2.64081 1.43407,4.16237 0.13481,6.3383 -0.52852,12.27277 -2.4796,22.18346 -1.88875,9.59412 -3.44736,14.36172 -5.82472,17.81709 -1.02992,1.49694 -2.01622,1.99349 -2.01622,1.01506 0,-0.27623 -0.13728,-0.50223 -0.30506,-0.50223 -0.3967,0 -1.92419,1.82076 -2.56168,3.05353 -0.27426,0.53037 -0.6078,0.96411 -0.74118,0.96386 -0.13339,-2.6e-4 -0.50515,-0.8942 -0.82614,-1.98653 -1.03614,-3.52611 -4.89169,-7.81341 -7.87908,-8.76143 -0.68592,-0.21766 -3.28589,-0.4634 -5.77772,-0.54608 -5.37109,-0.17821 -8.37586,0.26411 -15.22175,2.24077 -5.15469,1.48835 -6.28828,1.64731 -5.97781,0.83823 0.3115,-0.81175 2.02298,-1.53113 4.42965,-1.86191 3.66349,-0.50351 4.3797,-1.90866 3.02201,-5.929 -0.94377,-2.79466 -1.43869,-2.6931 -1.14465,0.23488 0.33163,3.30224 0.1183,3.56805 -3.07838,3.83553 -1.8691,0.1564 -2.8477,0.40886 -3.44712,0.88928 -2.85576,2.28882 -3.74636,2.35258 -6.74875,0.48311 -2.01228,-1.25296 -2.26494,-1.32255 -4.80259,-1.32255 h -2.67857 l -0.23194,-2.7989 c -0.12757,-1.5394 -0.29923,-2.86618 -0.38146,-2.94842 -0.22315,-0.22316 -1.56294,3.91251 -1.56294,4.8245 0,1.03821 0.85608,2.66137 1.61897,3.06966 0.33417,0.17884 1.57563,0.29833 2.75881,0.26552 1.75301,-0.0486 2.39186,0.0891 3.4511,0.7439 0.71493,0.44196 1.84496,1.01106 2.51117,1.26467 l 1.21128,0.46111 -1.6741,-0.1837 c -0.92076,-0.10103 -4.00948,-0.71756 -6.86384,-1.37005 -10.9889,-2.512 -11.48988,-2.59883 -15.06696,-2.61158 -2.56638,-0.009 -3.96764,0.15008 -5.18973,0.5897 -6.07385,2.18495 -8.29133,4.52896 -9.9107,10.47619 -0.39158,1.4381 -0.73558,2.64284 -0.76444,2.67719 -0.0289,0.0343 -0.63593,-1.07096 -1.34906,-2.45626 z m 49.57348,-29.33053 c -0.23978,-3.74249 -1.00651,-7.87127 -1.56553,-8.4303 -1.02226,-1.02226 -1.32495,3.05163 -0.51179,6.88811 0.45228,2.13388 1.64324,4.97411 2.08572,4.97411 0.11631,0 0.11253,-1.54436 -0.008,-3.43192 z"
     id="path14" /><path
     style="fill:#ffd2bb;fill-opacity:1;stroke-width:0.334822"
     d="m 206.73563,149.47732 c -3.33525,-0.49104 -5.66598,-1.59027 -7.70404,-3.63338 -2.00988,-2.01486 -4.29092,-5.58507 -5.40232,-8.45551 -1.25198,-3.23353 -1.15546,-13.70823 0.1407,-15.27002 0.68724,-0.82807 3.5412,-2.07854 6.36733,-2.78985 3.94901,-0.99394 12.63724,-1.24683 16.96667,-0.49386 5.20831,0.90583 8.5191,2.94769 10.30206,6.35357 0.67087,1.28152 0.29969,1.12803 -3.00398,-1.24224 -3.73254,-2.67797 -5.70065,-3.36806 -9.61417,-3.37109 -5.16444,-0.004 -7.88225,1.32747 -13.55159,6.63897 l -3.00473,2.81506 1.63188,1.44755 c 6.22341,5.52042 10.91854,7.56168 16.59855,7.21642 2.29326,-0.13939 3.62508,-0.46707 6.85762,-1.68722 2.20639,-0.83283 4.1242,-1.44466 4.26178,-1.35964 0.39729,0.24554 -0.85309,3.19034 -2.27042,5.34712 -4.4573,6.78277 -10.71579,9.64128 -18.57534,8.48412 z"
     id="path15" /><path
     style="fill:#ffd2bb;fill-opacity:1;stroke-width:0.334822"
     d="m 263.69577,148.29539 c -6.1857,-1.66294 -11.60436,-6.72752 -12.61745,-11.79296 -0.28356,-1.41777 0.24003,-1.40376 3.94173,0.10541 7.3296,2.98824 15.67321,1.16557 21.75435,-4.75226 1.44869,-1.40979 2.63399,-2.74898 2.63399,-2.97597 0,-0.85416 -6.08074,-6.14827 -8.38707,-7.30208 -6.15758,-3.08051 -12.1656,-2.14763 -18.06381,2.80483 -2.50163,2.1005 -2.51157,2.10504 -2.61993,1.1942 -0.22142,-1.86106 2.54121,-4.76978 5.96814,-6.28373 4.36793,-1.92967 17.2225,-2.2722 23.35015,-0.62219 3.4463,0.92799 5.69984,4.30187 6.02305,9.01737 0.47183,6.88387 -3.28017,15.24155 -8.43436,18.78772 -3.25741,2.24116 -9.07472,3.02245 -13.54879,1.81966 z"
     id="path16" /><path
     style="fill:#ffd2bb;fill-opacity:1;stroke-width:0.334822"
     d="m 235.3794,118.78973 c -2.07241,-0.28659 -5.05514,-1.18461 -7.17929,-2.16149 -4.73484,-2.17747 -7.63648,-3.02201 -14.71489,-4.28284 -3.01836,-0.53765 -5.63558,-1.1252 -5.81606,-1.30567 -0.5371,-0.5371 2.39681,-0.80787 7.0437,-0.65008 3.53944,0.1202 5.11453,0.36324 9.30898,1.43643 2.77679,0.71047 5.3005,1.19514 5.60826,1.07704 0.82455,-0.31641 0.70942,-1.99064 -0.19379,-2.81816 -2.68531,-2.46031 -10.88534,-4.37208 -16.06312,-3.745 -2.86592,0.34709 -5.65917,1.46969 -10.33147,4.15217 -5.09644,2.92601 -12.45763,5.47027 -17.56279,6.07028 -1.5597,0.18332 -1.80369,0.12691 -2.13585,-0.49376 -1.17483,-2.19517 -1.32841,-26.656647 -0.20111,-32.028498 1.07254,-5.110829 4.40275,-12.766632 5.90722,-13.580048 0.44939,-0.24297 0.582,-0.06182 0.7573,1.034494 0.12788,0.799683 0.39547,1.32904 0.67184,1.32904 0.53601,0 2.86821,-2.484484 2.90819,-3.098061 0.0149,-0.229659 0.0578,-0.837359 0.0953,-1.350444 0.0464,-0.636109 0.62361,-1.465551 1.81431,-2.607286 0.98053,-0.940195 1.74623,-1.972123 1.74623,-2.353365 0,-1.510503 6.27441,-6.392982 11.23294,-8.741008 2.21188,-1.047397 2.51832,-1.102062 6.17777,-1.102062 3.37316,0 4.31983,0.137432 7.63716,1.108727 5.58057,1.63396 8.06568,2.055756 13.45658,2.283974 6.07529,0.257191 9.55468,-0.159932 15.40178,-1.84643 9.10956,-2.627496 15.65816,-2.615129 20.92634,0.03952 1.85422,0.934348 8.95238,7.999928 9.91281,9.86732 0.83171,1.6171 3.20176,3.665923 4.62749,4.000298 2.11335,0.49564 4.16729,3.793603 6.26287,10.056163 1.98838,5.942203 2.48955,9.134089 2.69753,17.180139 0.18595,7.193867 -0.22539,14.991027 -0.9239,17.512927 -0.19408,0.70075 -0.59571,1.36726 -0.8925,1.48116 -1.71561,0.65834 -13.06069,-2.81056 -18.94319,-5.79212 -5.16443,-2.61761 -7.67334,-3.23159 -13.28799,-3.25183 -7.67383,-0.0277 -12.12127,1.59006 -13.35994,4.8596 -0.71413,1.88502 0.80069,1.83343 8.17022,-0.27822 3.01022,-0.86254 3.85519,-0.95999 8.37053,-0.96532 4.08035,-0.005 5.321,0.10931 6.61486,0.60851 0.87589,0.33795 1.50735,0.75229 1.40323,0.92076 -0.10412,0.16847 -1.45521,0.30632 -3.0024,0.30632 -7.52711,0 -13.09435,1.24523 -19.41301,4.34212 -5.41142,2.65224 -9.75418,3.47312 -14.73213,2.7847 z M 188.13107,88.40461 c 0.29742,-0.453899 0.54075,-1.217729 0.54075,-1.697392 0,-0.712912 -0.13753,-0.852592 -0.75335,-0.765127 -0.64288,0.0913 -0.76831,0.340193 -0.8554,1.697392 -0.11295,1.760272 0.247,2.018137 1.068,0.765127 z m 101.54049,-2.702819 c 0.27098,-0.706147 -0.82005,-1.829047 -1.77711,-1.829047 -0.97419,0 -1.02682,0.76281 -0.11552,1.674105 0.79879,0.798787 1.61978,0.865995 1.89263,0.154942 z M 188.87271,83.738817 c 1.13875,-1.138755 1.52558,-2.544644 0.70016,-2.544644 -0.92166,0 -2.57516,1.982721 -2.57516,3.087891 0,0.897682 0.61113,0.720615 1.875,-0.543247 z m 100.18484,-5.661666 c 0.13842,-0.71367 -1.46579,-2.317882 -2.17946,-2.179462 -0.91724,0.177908 -0.84918,0.79173 0.21398,1.92984 1.04306,1.116592 1.77919,1.210087 1.96548,0.249622 z m -1.00446,-4.017854 c 0.13842,-0.713669 -1.4658,-2.317884 -2.17946,-2.179461 -0.91724,0.177907 -0.84918,0.791725 0.21398,1.92984 1.04305,1.11659 1.77919,1.210078 1.96548,0.249621 z"
     id="path17" /><path
     style="fill:#ffd2bb;fill-opacity:1;stroke-width:0.334822"
     d=""
     id="path18" /><path
     style="fill:#ffd2bb;fill-opacity:1;stroke-width:0.334822"
     d="m 295.55266,154.43634 c 0.47533,-1.38734 1.0899,-2.37908 2.67422,-4.31544 0.69894,-0.85424 1.2708,-1.65069 1.2708,-1.76989 0,-0.11919 -0.56501,0.16847 -1.25558,0.63925 -1.58538,1.08079 -1.68095,0.78211 -0.94515,-2.95381 0.29604,-1.50311 0.6771,-4.58532 0.84679,-6.84937 0.32615,-4.35121 1.00397,-6.50221 2.11361,-6.70731 0.83427,-0.15421 1.4945,1.60555 1.7786,4.74057 0.12796,1.41216 0.33464,2.56756 0.45929,2.56756 0.47299,0 1.35511,-2.42285 1.35511,-3.72197 0,-0.77434 -0.43066,-2.33674 -1.00446,-3.6441 -0.55245,-1.25871 -1.00446,-2.5883 -1.00446,-2.95463 0,-0.3962 0.71217,-1.25333 1.75781,-2.11561 2.24156,-1.84849 2.38291,-2.06447 1.58878,-2.42764 -1.16737,-0.53385 -3.50109,0.65922 -5.35234,2.73629 l -1.67729,1.88187 v -1.21691 c 0,-3.23656 2.60241,-5.94801 5.70882,-5.94801 2.00688,0 3.44483,1.50718 4.00398,4.19677 0.57635,2.77228 0.25905,11.41172 -0.50988,13.88359 -1.09488,3.51964 -3.58272,7.84073 -6.2756,10.90001 -1.26713,1.43953 -4.95896,4.16694 -5.64039,4.16694 -0.14601,0 -0.0977,-0.48967 0.10734,-1.08816 z"
     id="path19" /><path
     style="fill:#ffd2bb;fill-opacity:1;stroke-width:0.334822"
     d="m 180.75442,155.41197 c -4.55183,-3.36435 -7.76738,-7.92969 -9.12864,-12.96058 -1.34053,-4.9543 -1.84193,-13.60702 -0.91678,-15.82121 0.63085,-1.50983 2.69774,-3.24852 3.86173,-3.24852 1.80491,0 4.76029,2.75006 5.90843,5.49796 0.99532,2.38214 0.34529,2.45589 -2.03345,0.2307 -3.0018,-2.80804 -5.42359,-4.00333 -6.05178,-2.9869 -0.15279,0.24721 0.52963,1.1035 1.80112,2.26004 1.12592,1.02412 2.08376,2.08804 2.12853,2.36427 0.0448,0.27622 -0.24727,1.53512 -0.649,2.79754 -0.516,1.62147 -0.73044,3.14013 -0.73044,5.17299 0,1.58273 0.12567,2.73454 0.27927,2.5596 0.1536,-0.17494 0.61248,-1.59806 1.01976,-3.16247 0.91653,-3.52056 1.48894,-4.49848 2.36022,-4.03218 0.80181,0.42911 1.26865,1.80296 1.88157,5.53728 0.51798,3.1558 1.05361,11.21652 0.74534,11.21652 -0.0983,0 -1.05126,-0.67748 -2.1176,-1.50551 -1.06633,-0.82803 -2.00976,-1.43453 -2.09651,-1.34779 -0.36083,0.36084 2.38423,3.17853 3.73242,3.83118 0.80224,0.38836 1.62311,1.06713 1.82416,1.5084 0.57563,1.26335 0.83666,3.1076 0.47177,3.33311 -0.18165,0.11227 -1.2122,-0.44772 -2.29012,-1.24443 z"
     id="path20" /><path
     style="fill:#ffd2bb;fill-opacity:1;stroke-width:0.334822"
     d="m 232.70082,225.46849 c -6.85046,-0.71463 -12.64008,-2.49284 -20.08928,-6.17015 -7.647,-3.77495 -10.98711,-6.66255 -12.59188,-10.88597 -1.1419,-3.00522 -0.49483,-6.3477 1.22885,-6.3477 0.41842,0 2.30546,1.35969 4.56223,3.28728 4.68266,3.99962 12.59698,10.34499 16.00839,12.83485 3.93547,2.87235 6.34918,4.20602 10.26475,5.67168 3.42574,1.28232 4.90054,2.03667 3.78101,1.93397 -0.26703,-0.0245 -1.69086,-0.17028 -3.16407,-0.32396 z"
     id="path21" /><path
     style="fill:#d3d4d9;fill-opacity:1;stroke-width:0.471698"
     d="m 174.19393,376.92547 c -2.25935,-0.30261 -4.24808,-0.69038 -4.41941,-0.8617 -0.17133,-0.17133 -0.0824,-15.12702 0.1976,-33.23486 0.52752,-34.11469 0.80493,-38.84353 2.90333,-49.49072 3.78094,-19.18423 13.61946,-36.75506 24.41457,-43.60249 2.71245,-1.72054 8.29622,-3.54088 12.14388,-3.95898 1.5566,-0.16914 3.31675,-0.40881 3.91144,-0.53257 0.92659,-0.19285 0.60219,0.48901 -2.26795,4.76687 -4.32048,6.43959 -7.64112,13.06023 -11.73956,23.40621 -1.81337,4.57764 -4.70795,11.47259 -6.43238,15.32212 -3.32037,7.41217 -3.79857,9.22957 -2.49958,9.49966 2.36909,0.49263 6.503,-6.71347 12.65504,-22.05985 5.92433,-14.77837 9.3242,-21.00828 15.89709,-29.12971 l 0.86087,-1.06368 5.42072,1.03607 c 7.00208,1.33832 15.32089,1.41459 20.04336,0.18376 1.81603,-0.47332 5.92133,-1.91169 9.12288,-3.19639 3.20156,-1.28471 5.91685,-2.23998 6.03399,-2.12284 0.11714,0.11714 -1.19555,1.74784 -2.9171,3.62377 -4.59092,5.00265 -3.70993,5.19623 4.85121,1.06596 7.78055,-3.75368 11.01158,-4.59621 14.84105,-3.86996 5.53531,1.04974 8.35725,3.88665 13.89609,13.96978 9.54428,17.37482 25.00728,48.0854 29.51179,58.61246 1.71789,4.0147 1.87707,4.72046 1.66383,7.37696 -0.45605,5.68137 -4.56267,11.80175 -9.28045,13.83128 -3.09665,1.33214 -9.15946,2.21983 -21.26105,3.11292 -12.49269,0.92195 -21.92921,1.96889 -25.85473,2.86844 -4.54556,1.04165 -5.34977,0.91682 -7.75972,-1.2045 -1.17893,-1.03773 -2.32973,-1.88679 -2.55733,-1.88679 -0.2276,0 -0.66099,0.65479 -0.96307,1.45509 -0.46108,1.22153 -0.72374,1.40277 -1.63643,1.12912 -0.59795,-0.17928 -2.04967,-1.2586 -3.22604,-2.39849 -2.41579,-2.34088 -2.93751,-2.53442 -2.72571,-1.0112 0.13351,0.96014 -0.0998,1.09061 -2.44676,1.36845 -5.60738,0.66381 -6.02118,0.58294 -7.00184,-1.36845 -1.64351,-3.27031 -2.19308,-6.70608 -2.1947,-13.72043 -0.001,-6.43018 0.0503,-6.80489 1.05191,-7.61644 1.38806,-1.12461 7.13687,-1.74264 8.65454,-0.9304 0.97276,0.52061 1.21281,0.41947 2.41698,-1.01839 3.46273,-4.13472 4.05102,-4.66244 5.19756,-4.66244 0.65026,0 1.72198,0.42453 2.38161,0.9434 1.62386,1.27733 2.062,1.20475 4.15783,-0.68871 3.45985,-3.12576 8.03973,-3.83632 30.29045,-4.6995 9.02913,-0.35027 16.52548,-0.74572 16.65854,-0.87878 0.44703,-0.44703 -1.87632,-2.22555 -3.56869,-2.73181 -0.92196,-0.2758 -7.14623,-0.6228 -13.83171,-0.77112 l -12.15542,-0.26965 -3.12366,-5.94719 c -5.80508,-11.05241 -9.51787,-17.73048 -10.9772,-19.74436 -1.23098,-1.69876 -1.70421,-2.00472 -3.10067,-2.00472 -1.00314,0 -1.64857,0.23072 -1.64947,0.58962 -7.5e-4,0.32429 1.85471,4.38199 4.12336,9.01711 l 4.12484,8.42748 -2.59034,2.38515 c -6.42962,5.92031 -11.6929,10.46366 -13.29487,11.47636 -0.95826,0.60577 -2.47491,1.83402 -3.37034,2.72945 -1.69016,1.69016 -2.86062,2.13026 -8.80248,3.30979 -1.94576,0.38625 -4.03443,0.84761 -4.6415,1.02524 -0.92343,0.27019 -1.54145,-0.137 -3.78249,-2.49211 -4.3436,-4.56467 -7.13819,-10.888 -7.14468,-16.16626 -0.004,-3.00406 -0.79802,-5.52571 -2.00745,-6.37283 -2.52501,-1.76859 -6.39012,-0.12406 -8.29096,3.52764 -1.04602,2.00951 -1.08913,2.45205 -0.83553,8.57729 l 0.26739,6.45845 -1.99465,0.24192 c -1.09706,0.13305 -3.78752,0.36608 -5.9788,0.51785 -7.45034,0.516 -9.98721,1.48741 -11.14959,4.26938 -1.07191,2.56545 -0.83897,5.45414 0.67133,8.32528 0.73672,1.40051 1.48515,3.49165 1.66319,4.64696 0.17804,1.1553 0.73444,2.94961 1.23644,3.98735 0.50201,1.03773 1.27027,3.113 1.70725,4.61171 0.43698,1.4987 1.49177,3.83075 2.34396,5.18232 0.85218,1.35157 1.45258,2.55426 1.3342,2.67264 -0.11837,0.11838 -1.49779,-1.04622 -3.06538,-2.58799 -3.33879,-3.2838 -7.03925,-8.60365 -8.23554,-11.83955 -1.54276,-4.17307 -2.54796,-4.70047 -6.90064,-3.62054 -1.63875,0.40659 -3.13869,0.88411 -3.3332,1.06114 -0.1945,0.17703 1.29135,0.31134 3.30189,0.29844 l 3.65552,-0.0235 2.12264,4.27035 c 4.20994,8.46958 7.8634,12.15683 15.90588,16.05295 5.34076,2.5873 6.26393,3.4069 6.26393,5.56124 0,0.65033 0.21227,1.3136 0.4717,1.47394 0.29072,0.17968 0.47169,-0.62403 0.47169,-2.0948 0,-3.1822 0.84537,-3.96288 5.04177,-4.6559 1.82631,-0.3016 5.8865,-1.29406 9.02265,-2.20544 3.13615,-0.91138 6.12225,-1.65706 6.63577,-1.65706 0.87978,0 2.49193,1.77833 2.96386,3.26939 0.11751,0.37128 0.94376,0.92961 1.83613,1.24074 0.89235,0.31113 1.57899,0.75028 1.52587,0.97589 -0.0531,0.22561 -0.84194,2.10487 -1.75294,4.17614 -1.06562,2.42285 -1.49379,3.92847 -1.20057,4.2217 0.68156,0.68156 0.5708,8.42492 -0.13386,9.35846 -0.94979,1.25829 -10.07726,5.36879 -16.91323,7.61679 -15.15489,4.98366 -32.10522,6.97288 -44.85975,5.26458 z m 34.93274,-12.89256 c 0.75206,-1.43201 1.15524,-4.83491 0.57286,-4.83491 -0.60326,0 -1.17228,1.35343 -1.63608,3.89151 -0.34162,1.86939 0.28495,2.42534 1.06322,0.9434 z m 1.95817,-8.84434 c 0,-0.8774 -0.21226,-1.72645 -0.4717,-1.88679 -0.28845,-0.17828 -0.47169,0.55469 -0.47169,1.88679 0,1.3321 0.18324,2.06507 0.47169,1.88679 0.25944,-0.16034 0.4717,-1.00939 0.4717,-1.88679 z m -33.7264,-30.66037 c 0,-0.57958 -1.90889,-0.8905 -2.9692,-0.48362 -0.67205,0.25789 -0.68344,0.35986 -0.0836,0.74911 0.86523,0.56151 3.05282,0.37126 3.05282,-0.26549 z"
     id="path22" /><path
     style="fill:#d3d4d9;fill-opacity:1;stroke-width:0.471698"
     d="m 156.60372,375.00939 c -3.28992,-0.72425 -6.67598,-2.01481 -10.49443,-3.99982 -5.49134,-2.85465 -5.47867,-2.8234 -5.6496,-13.93421 l -0.13788,-8.96226 1.17956,4.46043 c 0.64876,2.45324 1.52525,4.78815 1.94777,5.18868 0.70082,0.66435 0.74639,0.62478 0.51945,-0.451 -1.38709,-6.57526 -1.73728,-8.8973 -1.50279,-9.96491 0.1514,-0.68933 1.44286,-2.70917 2.86991,-4.48854 2.97338,-3.70747 5.31016,-8.29786 6.79031,-13.33893 0.67719,-2.30634 1.49528,-3.96756 2.3989,-4.87118 0.75419,-0.75419 1.37126,-1.4442 1.37126,-1.53335 0,-0.0891 -0.66026,-0.3071 -1.46724,-0.48434 -2.02161,-0.44402 -2.58036,0.26676 -3.72336,4.73647 -1.76105,6.88652 -7.47468,16.73724 -9.70798,16.73724 -0.80068,0 -0.82009,-0.97644 -0.20629,-10.37736 0.24562,-3.76179 0.67119,-11.50943 0.94572,-17.21697 2.15721,-44.84942 5.13497,-61.95395 14.84531,-85.27249 5.18333,-12.44735 7.27759,-19.20862 5.94973,-19.20862 -0.60791,0 -1.84473,1.83743 -4.76267,7.07547 -3.30026,5.92438 -4.24605,7.24982 -4.7871,6.70877 -0.74806,-0.74806 -1.03178,-11.78809 -0.42093,-16.37857 1.02078,-7.67103 3.63187,-11.5907 9.60201,-14.41413 3.71957,-1.75908 5.73483,-1.98793 11.18563,-1.27023 5.14992,0.67808 4.80807,0.0373 3.58587,6.7221 -0.93065,5.09013 -0.47877,10.79116 1.38709,17.49986 2.32244,8.35031 2.38325,8.84312 1.37178,11.11684 -0.50002,1.12401 -4.50486,6.81961 -8.89963,12.65687 -12.06123,16.02006 -15.88172,22.23189 -18.88907,30.71222 -1.45987,4.11662 -1.46759,6.31607 -0.0222,6.31607 0.74097,0 1.8548,-1.77566 5.27057,-8.40237 2.38208,-4.6213 5.24778,-9.82177 6.36823,-11.5566 2.45349,-3.79881 18.38302,-25.10694 19.40109,-25.95186 0.98676,-0.81894 1.31424,-0.16524 1.62299,3.23978 0.50384,5.55645 -1.64565,12.83846 -8.14006,27.57672 -4.91723,11.15903 -7.74964,19.51942 -9.42859,27.83018 -2.18103,10.7961 -2.58234,16.02567 -3.27589,42.68866 -0.36779,14.13915 -0.81283,29.26296 -0.989,33.60848 l -0.3203,7.90094 -1.479,-0.0375 c -0.81345,-0.0206 -2.75258,-0.31787 -4.30918,-0.66054 z m -10.69979,-14.27837 c -0.10687,-0.92878 -0.45067,-1.33997 -1.21058,-1.4479 -1.25949,-0.17887 -1.3849,0.66229 -0.28066,1.88246 1.11187,1.2286 1.66409,1.06768 1.49124,-0.43456 z m 14.47338,-36.19635 c 0,-0.57464 -1.4575,-0.88918 -2.41594,-0.52139 -0.39044,0.14982 -0.57026,0.49834 -0.3996,0.77447 0.37954,0.61413 2.81554,0.39515 2.81554,-0.25308 z"
     id="path23" /><path
     style="fill:#d3d4d9;fill-opacity:1;stroke-width:0.471698"
     d="m 227.83012,244.59342 c -8.11283,-1.276 -16.38987,-2.80726 -16.66581,-3.08321 -0.13018,-0.13019 0.59467,-0.23855 1.61078,-0.2408 3.00389,-0.007 6.80032,-0.56772 6.80032,-1.005 0,-0.22329 -1.16746,-0.40599 -2.59434,-0.40599 -1.42689,0 -2.59434,-0.18156 -2.59434,-0.40347 0,-0.57082 5.79363,-1.73841 16.74527,-3.37468 11.73173,-1.75282 20.27421,-3.45564 26.40577,-5.2636 5.07274,-1.49577 11.09422,-4.0507 11.09422,-4.70732 0,-0.22103 -0.79599,-0.40318 -1.76886,-0.40478 -0.97288,-10e-4 -2.40494,-0.33456 -3.18235,-0.73991 -1.74896,-0.91194 -6.37738,-4.45331 -6.34787,-4.857 0.0119,-0.16302 1.14898,-1.53721 2.5268,-3.05374 l 2.50513,-2.75735 2.34742,2.34742 c 1.29108,1.29109 3.5554,4.07133 5.03182,6.17835 1.47642,2.107 4.0059,5.34594 5.62107,7.19762 4.92673,5.64822 6.04508,7.15456 5.6242,7.57544 -0.22175,0.22175 -5.16245,0.58487 -10.97932,0.80694 -11.65936,0.4451 -10.56741,0.20372 -21.66105,4.78838 -4.62989,1.91339 -5.27577,2.05488 -9.90566,2.16991 -3.13232,0.0778 -7.0334,-0.20418 -10.6132,-0.76721 z m -0.78592,-2.78979 c 0.50189,-0.31815 0.47023,-0.45982 -0.1565,-0.70033 -1.86062,-0.71398 -4.60422,-0.10914 -3.68312,0.81197 0.43508,0.43508 3.09935,0.35761 3.83962,-0.11164 z m 37.57836,-7.13389 c 0.17633,-0.28529 -0.47608,-0.4717 -1.65094,-0.4717 -1.17486,0 -1.82727,0.18641 -1.65095,0.4717 0.16034,0.25943 0.90327,0.4717 1.65095,0.4717 0.74768,0 1.4906,-0.21227 1.65094,-0.4717 z m 5.66038,-1.17925 c 0,-0.5602 -1.89535,-0.89569 -2.89439,-0.51232 -0.38673,0.14839 -0.56364,0.49554 -0.39312,0.77142 0.38319,0.62004 3.28751,0.39113 3.28751,-0.2591 z"
     id="path24" /><path
     style="fill:#d3d4d9;fill-opacity:1;stroke-width:0.471698"
     d="m 184.7961,225.53465 c -3.60058,-5.0547 -4.56715,-9.08345 -4.25774,-17.74659 0.265,-7.41949 1.24121,-10.706 4.05708,-13.65848 3.00065,-3.14623 8.13244,-3.72284 9.85453,-1.10727 0.64569,0.98071 0.60756,1.05776 -0.65583,1.32527 -2.11695,0.44825 -2.66118,0.8856 -4.05593,3.25951 -2.84762,4.84672 -3.18166,6.77728 -3.18166,18.38786 0,5.83013 -0.1592,10.6942 -0.35378,10.80903 -0.19457,0.11483 -0.82758,-0.45637 -1.40667,-1.26933 z"
     id="path25" /><path
     style="fill:#d3d4d9;fill-opacity:1;stroke-width:0.471698"
     d="m 123.56668,309.6174 c -1.02774,-0.54764 -2.39927,-1.27926 -3.04785,-1.62581 -1.04351,-0.55757 -1.63111,-0.47011 -5.10494,0.75986 -6.12526,2.16875 -6.49765,2.03092 -9.00824,-3.33436 -1.92055,-4.10434 -3.33965,-9.8548 -3.33965,-13.53294 0,-2.53228 0.17649,-3.18851 1.10805,-4.12007 1.4475,-1.44749 6.1418,-2.56358 7.42139,-1.76446 1.25133,0.78147 1.2155,0.81253 2.08587,-1.80791 1.12117,-3.37553 1.62959,-3.76725 4.05083,-3.12098 1.9073,0.50909 2.01727,0.47793 2.97324,-0.84234 2.56491,-3.54231 2.68445,-3.61594 6.65572,-4.09906 3.16851,-0.38546 9.1142,-1.76406 11.41354,-2.6464 0.8481,-0.32545 0.80163,2.24082 -0.34505,19.05627 -0.70647,10.35994 -1.14173,14.31792 -1.66182,15.11169 -0.84289,1.28641 -0.67512,1.27478 -3.86873,0.26809 -2.41971,-0.76275 -2.58626,-0.76257 -3.01487,0.003 -0.36102,0.6451 -3.62555,2.69081 -4.29398,2.69081 -0.0852,0 -0.99578,-0.44806 -2.02351,-0.9957 z m -8.60417,-12.56561 c 0.26443,-1.01954 -0.0378,-2.00471 -0.61506,-2.00471 -0.23781,0 -0.43239,0.63679 -0.43239,1.41509 0,1.53365 0.70037,1.92789 1.04745,0.58962 z"
     id="path26" /><path
     style="fill:#ffffff;fill-opacity:1;stroke-width:0.960984"
     d="m 246.04574,339.13796 c 3.73763,-9.83071 4.90872,-18.0086 6.30394,-44.02127 0.79097,-14.74705 1.88798,-27.65336 2.43779,-28.68069 0.82552,-1.54249 1.61299,-1.75331 4.5206,-1.21025 4.35746,0.81387 4.39,0.84751 3.11831,3.22369 -1.56059,2.916 -1.21539,8.7932 0.7737,13.17239 3.69006,8.12405 18.1371,16.84709 34.22435,20.66444 6.95551,1.65047 10.81256,1.97967 19.70016,1.68136 9.78111,-0.32829 11.67452,-0.68251 16.4735,-3.08184 l 5.42218,-2.71092 2.98643,2.20796 c 1.64253,1.21438 2.98642,2.51219 2.98642,2.88404 0,1.23655 -15.97287,4.52175 -39.32267,8.08764 -9.20676,1.40602 -19.36916,3.51736 -22.58312,4.69187 -7.43959,2.71872 -23.32196,13.04051 -30.95757,20.11901 -3.24189,3.00536 -6.15018,5.46428 -6.46286,5.46428 -0.31268,0 -0.1422,-1.12127 0.37884,-2.49171 z"
     id="path29"
     transform="scale(0.74999977)" /></svg>
